<?xml version="1.0" encoding="utf-8"?>
<!-- Generator: Adobe Illustrator 26.0.0, SVG Export Plug-In . SVG Version: 6.00 Build 0)  -->
<svg version="1.1" id="Capa_1" xmlns="http://www.w3.org/2000/svg" xmlns:xlink="http://www.w3.org/1999/xlink" x="0px" y="0px"
	 viewBox="0 0 466.3 466.3" style="enable-background:new 0 0 466.3 466.3;" xml:space="preserve">
<style type="text/css">
	.st0{fill:#FFFFFF;}
</style>
<g>
	<path class="st0" d="M355.6,403.2c-0.3-0.8-31.6-85-33-134c-1.3-44.4-17.1-70.9-21.9-78l15-76.9c1.1-5.4,0.6-11.2-1.2-16.5
		c-6.9-19.9,1.3-63.3,1.4-63.7c0.4-1.9-0.4-3.9-2-5l-25.9-18.5l0,0c0,0,0,0-0.1-0.1l-14.1-9.6c-1.3-0.9-2.9-1.1-4.4-0.6
		c-1.5,0.5-2.6,1.6-3.2,3.1c-2.5,7.2-9.4,16.7-20.1,27.5c-5.1,5.1-9.9,9.4-12.9,12c-3-2.6-7.8-6.9-12.9-12
		C209.5,20,202.6,10.5,200.1,3.4c-0.5-1.5-1.7-2.6-3.2-3.1c-1.5-0.5-3.1-0.3-4.4,0.6l-14.1,9.6c0,0-0.1,0-0.1,0.1l0,0l-25.9,18.5
		c-1.6,1.1-2.4,3.1-2,5c0.1,0.4,8.3,43.8,1.4,63.7c-1.9,5.4-2.3,11.1-1.2,16.5l15,76.9c-4.8,7.1-20.6,33.6-21.9,78
		c-1.4,49-32.7,133.1-33,134c-0.9,2.5,0.2,5.2,2.7,6.3l24.1,10.7c-1.3,2.6-2.6,5-4,7.3c-0.8,1.3-1,2.9-0.5,4.4
		c0.5,1.5,1.7,2.6,3.2,3l28.9,9.2c-0.7,1.6-1.4,3.1-2.2,4.5c-0.8,1.5-0.8,3.3,0.1,4.8c0.9,1.5,2.4,2.4,4.1,2.5l36.5,1.4l-0.2,3.7
		c-0.1,1.4,0.4,2.7,1.4,3.7s2.3,1.6,3.6,1.6H258c1.4,0,2.7-0.6,3.6-1.6s1.4-2.3,1.4-3.7l-0.2-3.7l36.5-1.4c1.7-0.1,3.3-1,4.1-2.5
		c0.9-1.5,0.9-3.3,0.1-4.8c-0.7-1.4-1.5-2.9-2.2-4.5l28.9-9.2c1.5-0.5,2.6-1.6,3.2-3c0.5-1.5,0.4-3.1-0.5-4.4
		c-1.4-2.2-2.8-4.7-4-7.3l24.1-10.7C355.4,408.5,356.5,405.7,355.6,403.2z M305,101.1c1.3,3.7,1.6,7.6,0.9,11.3L291,188.6
		c-14.3,4.7-29,7.6-43.9,8.7V58.6c3.4,1.6,6.9,3.6,10,5.5c0.8,0.5,1.7,0.7,2.6,0.7c0.4,0,0.8-0.1,1.3-0.2c1.3-0.3,2.4-1.2,3.1-2.4
		l22.5-40.3l18.8,13.4C303.6,46.2,298.4,81.8,305,101.1z M273.1,12.5l5.4,3.7l-20.5,36.7c-3.7-2.1-8.8-4.7-13.7-6.5
		C252.9,38.6,266.4,25.2,273.1,12.5z M193.2,12.5c6.7,12.6,20.2,26.1,28.8,33.9c-4.9,1.8-10,4.4-13.7,6.5l-20.5-36.7L193.2,12.5z
		 M160.4,112.4c-0.7-3.7-0.4-7.6,0.9-11.3c6.7-19.3,1.4-54.8-0.4-65.7L179.7,22l22.5,40.3c0.7,1.2,1.8,2.1,3.1,2.4
		c0.4,0.1,0.8,0.2,1.3,0.2c0.9,0,1.8-0.3,2.6-0.7c6.3-3.9,14.5-7.9,19.5-9.2c3.6-1,7.3-0.5,8.6-0.2v143.1
		c-20.9,0.4-41.9-2.6-61.9-9.2L160.4,112.4z M121.7,402.3c2.8-7.7,8.7-24.7,14.6-44.8c10.9-37,16.8-66.6,17.4-87.9
		c1.1-38.9,14.2-63.3,19.2-71.2c2,0.6,4,1.2,6,1.8c-4.3,11.7-14.8,43.2-16.7,74.2l-0.1,1.9c-1.9,32.7-5.6,95.9-20.7,134.9
		L121.7,402.3z M145,427.3c20.5-38.9,24.9-113.7,27.1-150.5l0.1-1.9c1.8-30.2,12.6-61.9,16.4-72.2c2.8,0.6,5.5,1.2,8.3,1.7
		c-2.9,13.1-9.9,48.1-9.2,79c0.8,33.8-4.4,109.2-19.2,151.3L145,427.3z M204.1,447.3l-29.2-1.1c9.4-22.1,14.8-54.3,17.8-78.6
		c4.3-35,5.4-67.3,5-84.4c-0.7-30,6.4-65.1,9.1-77.2c3.7,0.5,7.4,0.9,11.1,1.2L204.1,447.3z M213.6,456.3l14.3-248.6
		c1.7,0,3.5,0.1,5.2,0.1c1.7,0,3.5,0,5.2-0.1l14.3,248.6H213.6z M262.2,447.3l-13.8-240.1c3.7-0.3,7.4-0.7,11.1-1.2
		c2.7,12.1,9.8,47.3,9.1,77.2c-0.4,17,0.7,49.4,5,84.4c3,24.3,8.5,56.5,17.8,78.6L262.2,447.3z M297.7,434.8
		c-14.8-42.1-20-117.5-19.2-151.3c0.7-30.9-6.3-66-9.2-79c2.8-0.5,5.6-1.1,8.3-1.7c3.8,10.3,14.6,42,16.4,72.2l0.1,1.8
		c2.2,36.8,6.5,111.6,27.1,150.5L297.7,434.8z M324.9,411.1c-15.1-39-18.8-102.2-20.7-134.9l-0.1-1.9c-1.8-31-12.4-62.5-16.7-74.2
		c2-0.6,4-1.2,6-1.8c1.9,3,5,8.4,8.1,16c4.7,11.4,10.4,30.2,11.1,55.2c0.6,21.3,6.5,50.9,17.4,87.9c5.9,20.1,11.9,37.1,14.6,44.8
		L324.9,411.1z"/>
	<path class="st0" d="M224.2,79.4c1.3,0,2.6-0.5,3.5-1.5s1.5-2.2,1.5-3.5c0-1.3-0.5-2.6-1.5-3.5c-0.9-0.9-2.2-1.5-3.5-1.5
		c-1.3,0-2.6,0.5-3.5,1.5s-1.5,2.2-1.5,3.5c0,1.3,0.5,2.6,1.5,3.5C221.5,78.9,222.8,79.4,224.2,79.4z"/>
	<path class="st0" d="M224.2,131.1c2.8,0,5-2.2,5-5c0-2.8-2.2-5-5-5s-5,2.2-5,5C219.2,128.9,221.4,131.1,224.2,131.1z"/>
	<circle class="st0" cx="224.2" cy="100.3" r="5"/>
	<path class="st0" d="M224.2,157c2.8,0,5-2.2,5-5c0-2.8-2.2-5-5-5s-5,2.2-5,5C219.2,154.8,221.4,157,224.2,157z"/>
	<path class="st0" d="M224.2,182.9c1.3,0,2.6-0.5,3.5-1.5c0.9-0.9,1.5-2.2,1.5-3.5c0-1.3-0.5-2.6-1.5-3.5c-0.9-0.9-2.2-1.5-3.5-1.5
		c-1.3,0-2.6,0.5-3.5,1.5c-0.9,0.9-1.5,2.2-1.5,3.5c0,1.3,0.5,2.6,1.5,3.5C221.5,182.4,222.8,182.9,224.2,182.9z"/>
	<path class="st0" d="M294.4,85l-32.5-2.5c-1.3-0.1-2.6,0.3-3.6,1.2c-1,0.9-1.6,2.1-1.7,3.4l-3.2,41.4c-0.2,2.8,1.8,5.2,4.6,5.4
		l32.5,2.5c0.1,0,0.3,0,0.4,0c1.2,0,2.3-0.4,3.2-1.2c1-0.9,1.6-2.1,1.7-3.4l3.2-41.4C299.2,87.7,297.1,85.3,294.4,85z M288.6,94.6
		l-0.5,7l-22.5-1.8l0.5-7L288.6,94.6z M263.6,124.3l1.1-14.4l22.5,1.8l-1.1,14.4L263.6,124.3z"/>
</g>
</svg>
