<?xml version="1.0" encoding="utf-8"?>
<!-- Generator: Adobe Illustrator 26.0.0, SVG Export Plug-In . SVG Version: 6.00 Build 0)  -->
<svg version="1.1" id="Layer_1" xmlns="http://www.w3.org/2000/svg" xmlns:xlink="http://www.w3.org/1999/xlink" x="0px" y="0px"
	 viewBox="0 0 16 16" style="enable-background:new 0 0 16 16;" xml:space="preserve">
<style type="text/css">
	.st0{fill:#FFFFFF;}
</style>
<path class="st0" d="M3,2v4.6l7,7L14.6,9l-7-7H3z M2,2c0-0.6,0.4-1,1-1h4.6c0.3,0,0.5,0.1,0.7,0.3l7,7c0.4,0.4,0.4,1,0,1.4l-4.6,4.6
	c-0.4,0.4-1,0.4-1.4,0l-7-7C2.1,7.1,2,6.9,2,6.6V2z"/>
<path class="st0" d="M5.5,5C5.2,5,5,4.8,5,4.5S5.2,4,5.5,4S6,4.2,6,4.5S5.8,5,5.5,5z M5.5,6C6.3,6,7,5.3,7,4.5S6.3,3,5.5,3
	S4,3.7,4,4.5S4.7,6,5.5,6z M1,7.1c0,0.3,0.1,0.5,0.3,0.7l7.5,7.5l0,0c-0.4,0.4-1,0.4-1.4,0l-7-7C0.1,8.1,0,7.9,0,7.6V3
	c0-0.6,0.4-1,1-1V7.1z"/>
</svg>
