<svg fill="#ffffff" xmlns="http://www.w3.org/2000/svg"  viewBox="0 0 48 48" width="144px" height="144px"><path d="M 37 4 C 32.582 4 29 7.5715625 29 11.976562 C 29 17.410563 34.450797 19.361984 36.466797 27.083984 C 36.605797 27.613984 36.559 28 37 28 C 37.441 28 37.394203 27.613984 37.533203 27.083984 C 39.549203 19.361984 45 17.410563 45 11.976562 C 45 7.5715625 41.418 4 37 4 z M 11.5 7 C 8.47 7 6 9.47 6 12.5 L 6 37.5 C 6 38.48 6.2592187 39.389688 6.6992188 40.179688 L 28.25 18.630859 C 27 16.790859 26 14.740469 26 11.980469 C 26 10.190469 26.429219 8.49 27.199219 7 L 11.5 7 z M 37 9 C 38.657 9 40 10.343 40 12 C 40 13.657 38.657 15 37 15 C 35.343 15 34 13.657 34 12 C 34 10.343 35.343 9 37 9 z M 15.509766 11 C 16.769766 11 18.000469 11.440469 18.980469 12.230469 C 19.410469 12.570469 19.469141 13.200859 19.119141 13.630859 C 18.779141 14.060859 18.150703 14.129297 17.720703 13.779297 C 17.090703 13.269297 16.329766 13 15.509766 13 C 13.579766 13 12.009766 14.57 12.009766 16.5 C 12.009766 18.43 13.579766 20 15.509766 20 C 16.899766 20 18.109922 19.19 18.669922 18 L 16.009766 18 C 15.459766 18 15.009766 17.55 15.009766 17 C 15.009766 16.45 15.459766 16 16.009766 16 L 19.990234 16 C 20.270234 16 20.540469 16.120078 20.730469 16.330078 C 20.920469 16.550078 21.010469 16.829375 20.980469 17.109375 C 20.660469 19.899375 18.309766 22 15.509766 22 C 12.479766 22 10.009766 19.53 10.009766 16.5 C 10.009766 13.47 12.479766 11 15.509766 11 z M 30.039062 21.080078 L 26.119141 25 L 41.300781 40.179688 C 41.740781 39.389688 42 38.48 42 37.5 L 42 24.009766 C 41.38 25.109766 40.829453 26.349844 40.439453 27.839844 C 40.419453 27.889844 40.410156 27.940234 40.410156 27.990234 C 39.850156 30.780234 37.66 31 37 31 C 36.34 31 34.149844 30.780234 33.589844 27.990234 C 33.589844 27.940234 33.580547 27.889844 33.560547 27.839844 C 32.790547 24.889844 31.419062 22.920078 30.039062 21.080078 z M 24 27.119141 L 8.8203125 42.300781 C 9.6103125 42.740781 10.52 43 11.5 43 L 36.5 43 C 37.48 43 38.389688 42.740781 39.179688 42.300781 L 24 27.119141 z"/></svg>